<?xml version="1.0" standalone="no"?><!DOCTYPE svg PUBLIC "-//W3C//DTD SVG 1.1//EN" "http://www.w3.org/Graphics/SVG/1.1/DTD/svg11.dtd"><svg t="1590210473643" class="icon" viewBox="0 0 1024 1024" version="1.1" xmlns="http://www.w3.org/2000/svg" p-id="4033" xmlns:xlink="http://www.w3.org/1999/xlink" width="200" height="200"><defs><style type="text/css"></style></defs><path d="M709.454 681.74L361.328 310.42c-31.68-33.774-45.27-66.172-36.382-86.636 8.858-20.37 41.538-32.492 87.496-32.492h0.672l298.62 0.782h0.062c11.78 0 21.306-9.544 21.306-21.322 0-11.764-9.528-21.308-21.276-21.324v-0.016l-298.604-0.782h-0.812c-65.33 0-110.272 20.636-126.58 58.142-16.372 37.664-0.61 84.84 44.38 132.83l348.092 371.29c31.68 33.804 45.302 66.266 36.366 86.856-8.902 20.558-41.894 32.868-88.198 32.868H285.206c-11.778 0-21.324 9.53-21.324 21.308s9.544 21.306 21.324 21.306h341.266c65.768 0 110.974-20.776 127.346-58.548 16.37-37.744 0.592-84.982-44.364-132.942z" fill="#d81e06" p-id="4034"></path><path d="M498.484 0.118c-11.778 0-21.324 9.542-21.324 21.322v981.134c0 11.748 9.544 21.308 21.324 21.308s21.34-9.56 21.34-21.308V21.44c0-11.78-9.562-21.322-21.34-21.322z" fill="#d81e06" p-id="4035"></path></svg>